<svg width="26" height="26" viewBox="0 0 26 26" fill="none" xmlns="http://www.w3.org/2000/svg">
<rect width="26" height="26" rx="6" fill="url(#paint0_linear_6082_2280)"/>
<path d="M21.8435 13.5692C21.7264 13.3569 21.5733 13.2026 21.3751 13.0965L17.7812 11.2828V7.37569C17.7812 7.12486 17.7181 6.90298 17.601 6.69074C17.4839 6.4785 17.3308 6.32415 17.1327 6.21803L13.4216 4.34647C13.2955 4.27894 13.1604 4.25 13.0073 4.25C12.8542 4.25 12.7191 4.27894 12.593 4.34647L8.88196 6.22767C8.69281 6.33379 8.53068 6.48815 8.41358 6.70039C8.29649 6.91262 8.23344 7.13451 8.23344 7.38534V11.2924L4.64853 13.0965C4.45937 13.2026 4.29724 13.3569 4.18015 13.5692C4.06305 13.7814 4 14.0033 4 14.2541V18.3156C4 18.5471 4.05404 18.769 4.15312 18.9716C4.26121 19.1742 4.40533 19.3286 4.58548 19.4347L8.29649 21.6149C8.4316 21.7018 8.59373 21.75 8.76487 21.75C8.94501 21.75 9.09814 21.7018 9.23325 21.6149L12.9443 19.425C12.9713 19.4154 12.9893 19.3961 12.9983 19.3864C13.0073 19.3961 13.0253 19.4154 13.0523 19.425L16.7634 21.6149C16.8985 21.7018 17.0606 21.75 17.2317 21.75C17.4119 21.75 17.565 21.7018 17.7001 21.6149L21.4111 19.425C21.5913 19.3189 21.7354 19.1646 21.8435 18.962C21.9516 18.7594 21.9966 18.5375 21.9966 18.306V14.2445C22.0146 14.0033 21.9606 13.7814 21.8435 13.5692ZM9.24225 8.7263L12.4218 10.3277V12.9325L9.24225 11.3214V8.7263ZM8.15237 20.2547L4.97279 18.3831V15.3153L8.15237 16.9168V20.2547ZM8.76487 15.7591L5.42316 14.0708L8.76487 12.3826L12.1066 14.0708L8.76487 15.7591ZM12.4759 18.3156L9.2963 20.1872V16.8492L12.4759 15.2478V18.3156ZM13.0073 9.18936L9.35034 7.34675L13.0073 5.49449L16.6553 7.3371L13.0073 9.18936ZM16.7183 8.68771V11.2828L13.5387 12.8939V10.2891L16.7183 8.68771ZM16.7093 20.2161L13.5297 18.3349V15.2671L16.7093 16.8685V20.2161ZM17.2407 15.7591L13.899 14.0708L17.2407 12.3729L20.5825 14.0612L17.2407 15.7591ZM20.9518 18.3156L17.7722 20.1872V16.8492L20.9518 15.2478V18.3156Z" fill="white"/>
<defs>
<linearGradient id="paint0_linear_6082_2280" x1="16.5455" y1="-6.79444e-07" x2="16.5455" y2="26" gradientUnits="userSpaceOnUse">
<stop stop-color="#6CE64A"/>
<stop offset="1" stop-color="#1D9725"/>
</linearGradient>
</defs>
</svg>
