<svg width="26" height="26" viewBox="0 0 26 26" fill="none" xmlns="http://www.w3.org/2000/svg">
<rect width="26" height="26" rx="6" fill="url(#paint0_linear_6082_2305)"/>
<path d="M16.3169 12.3203C18.0886 12.4102 19.4976 13.8759 19.4976 15.6699L19.4937 15.8418C19.4597 16.514 19.2258 17.133 18.853 17.6436L20.2642 19.0557C20.5375 19.329 20.5375 19.7716 20.2642 20.0449C19.9908 20.3183 19.5483 20.3182 19.2749 20.0449L17.8071 18.5771C17.3168 18.8581 16.7507 19.0223 16.145 19.0225L15.9722 19.0186C14.2575 18.9317 12.8822 17.5565 12.7954 15.8418L12.7915 15.6699C12.7915 13.818 14.2931 12.3164 16.145 12.3164L16.3169 12.3203ZM20.1646 5.75C20.8379 5.7502 21.3838 6.29646 21.3843 6.96973V10.1211C21.3843 10.7948 20.8382 11.3416 20.1646 11.3418H10.9058V18.5039C10.9057 19.1776 10.3597 19.7245 9.68604 19.7246H5.83643C5.1628 19.7244 4.61572 19.1776 4.61572 18.5039V6.96973C4.61619 6.29645 5.16309 5.75019 5.83643 5.75H20.1646ZM6.01611 18.3242H9.50537L9.50635 15.5332H6.01611V18.3242ZM16.145 13.7168C15.0663 13.7168 14.1919 14.5912 14.1919 15.6699C14.1921 16.7485 15.0664 17.623 16.145 17.623C17.2233 17.6226 18.098 16.7482 18.0981 15.6699C18.0981 14.5915 17.2234 13.7172 16.145 13.7168ZM6.01611 14.1328H9.50635L9.50537 11.3418H6.01611V14.1328ZM6.01611 9.94141H9.50537L9.50635 7.15039H6.01611V9.94141ZM10.9058 9.94141H19.9839V7.15039H10.9058V9.94141Z" fill="white"/>
<defs>
<linearGradient id="paint0_linear_6082_2305" x1="16.5455" y1="-6.79444e-07" x2="16.5455" y2="26" gradientUnits="userSpaceOnUse">
<stop stop-color="#B974EB"/>
<stop offset="1" stop-color="#941FCF"/>
</linearGradient>
</defs>
</svg>
