<svg width="26" height="26" viewBox="0 0 26 26" fill="none" xmlns="http://www.w3.org/2000/svg">
<rect width="26" height="26" rx="6" fill="url(#paint0_linear_6013_2211)"/>
<path d="M16.7302 12.6318C19.3722 12.766 21.4735 14.9497 21.4724 17.625C21.4724 20.3868 19.2342 22.625 16.4724 22.625L16.2146 22.6182C13.5727 22.484 11.4724 20.3003 11.4724 17.625C11.4724 14.8632 13.7106 12.625 16.4724 12.625L16.7302 12.6318ZM16.4724 14.0254C14.4838 14.0254 12.8728 15.6364 12.8728 17.625C12.8728 19.6136 14.4838 21.2246 16.4724 21.2246C18.461 21.2246 20.072 19.6136 20.072 17.625V17.624C20.0726 15.6366 18.4614 14.0254 16.4724 14.0254ZM18.8484 4.5752C19.4143 4.57539 19.8728 5.03462 19.8728 5.60059V11.5771C19.8727 11.9636 19.5591 12.2773 19.1726 12.2773C18.7865 12.2769 18.4735 11.9634 18.4734 11.5771V5.97559H6.82788V19.7949H10.2878C10.6744 19.7949 10.988 20.1085 10.988 20.4951C10.9879 20.8816 10.6744 21.1953 10.2878 21.1953H6.45288C5.88698 21.1951 5.42753 20.7359 5.42749 20.1699V5.60059C5.42749 5.03462 5.88696 4.5754 6.45288 4.5752H18.8484ZM15.45 15.9473C15.45 15.6811 15.6936 15.5139 15.8884 15.6475L16.3259 15.9473L18.3035 17.3008C18.498 17.4335 18.4984 17.7678 18.3044 17.9004L15.8884 19.5537C15.6938 19.6869 15.4502 19.5197 15.45 19.2539V15.9473ZM11.2009 11.2881C11.5874 11.2881 11.9009 11.6019 11.9011 11.9883C11.9011 12.3749 11.5875 12.6885 11.2009 12.6885H9.0271C8.6405 12.6885 8.3269 12.3749 8.3269 11.9883C8.3271 11.6019 8.64062 11.2881 9.0271 11.2881H11.2009ZM16.2742 7.9248C16.6608 7.9248 16.9744 8.2384 16.9744 8.625C16.9744 9.0116 16.6608 9.3252 16.2742 9.3252H9.0271C8.6405 9.3252 8.3269 9.0116 8.3269 8.625C8.3269 8.2384 8.6405 7.9248 9.0271 7.9248H16.2742Z" fill="white"/>
<defs>
<linearGradient id="paint0_linear_6013_2211" x1="16.5455" y1="-6.79444e-07" x2="16.5455" y2="26" gradientUnits="userSpaceOnUse">
<stop stop-color="#FFCA1A"/>
<stop offset="1" stop-color="#FFA31A"/>
</linearGradient>
</defs>
</svg>
