<svg width="26" height="26" viewBox="0 0 26 26" fill="none" xmlns="http://www.w3.org/2000/svg">
<g clip-path="url(#clip0_6082_2262)">
<rect width="26" height="26" rx="6" fill="url(#paint0_linear_6082_2262)"/>
<path d="M13 17H20C20.5523 17 21 16.5523 21 16V7C21 6.44772 20.5523 6 20 6H6C5.44772 6 5 6.44771 5 7V16C5 16.5523 5.44772 17 6 17H13ZM13 17V21M13 21H18M13 21H8" stroke="white" stroke-width="1.4" stroke-linecap="round"/>
<path d="M9 12L11.1464 14.1464C11.3417 14.3417 11.6583 14.3417 11.8536 14.1464L17 9" stroke="white" stroke-width="1.5" stroke-linecap="round"/>
</g>
<defs>
<linearGradient id="paint0_linear_6082_2262" x1="16.5455" y1="-6.79444e-07" x2="16.5455" y2="26" gradientUnits="userSpaceOnUse">
<stop stop-color="#666DFF"/>
<stop offset="1" stop-color="#4750F0"/>
</linearGradient>
<clipPath id="clip0_6082_2262">
<rect width="26" height="26" rx="6" fill="white"/>
</clipPath>
</defs>
</svg>
