<svg width="26" height="26" viewBox="0 0 26 26" fill="none" xmlns="http://www.w3.org/2000/svg">
<rect width="26" height="26" rx="6" fill="url(#paint0_linear_6013_2189)"/>
<path d="M21 9.44445V19.2222C21 19.6937 20.8127 20.1459 20.4793 20.4793C20.1459 20.8127 19.6937 21 19.2222 21H6.77778C6.30628 21 5.8541 20.8127 5.5207 20.4793C5.1873 20.1459 5 19.6937 5 19.2222V9.44445H21ZM15.6667 11.2222H10.3333C10.1068 11.2225 9.88886 11.3092 9.72412 11.4648C9.55937 11.6203 9.46024 11.8328 9.44696 12.059C9.43368 12.2852 9.50727 12.5079 9.65268 12.6816C9.79809 12.8554 10.0044 12.967 10.2293 12.9938L10.3333 13H15.6667C15.9024 13 16.1284 12.9063 16.2951 12.7396C16.4618 12.5729 16.5554 12.3468 16.5554 12.1111C16.5554 11.8754 16.4618 11.6493 16.2951 11.4826C16.1284 11.3159 15.9024 11.2223 15.6667 11.2222Z" fill="white"/>
<path d="M20.4793 5.5207C20.1459 5.1873 19.6937 5 19.2222 5H6.77778C6.30628 5 5.8541 5.1873 5.5207 5.5207C5.1873 5.8541 5 6.30628 5 6.77778V7.66667H21V6.77778C21 6.30628 20.8127 5.8541 20.4793 5.5207Z" fill="white"/>
<defs>
<linearGradient id="paint0_linear_6013_2189" x1="19" y1="-1.87439e-07" x2="19" y2="27" gradientUnits="userSpaceOnUse">
<stop offset="0.5" stop-color="#F25714"/>
<stop offset="1" stop-color="#F5A319"/>
</linearGradient>
</defs>
</svg>
